<?xml version="1.0" standalone="no"?>
<!DOCTYPE svg PUBLIC "-//W3C//DTD SVG 20010904//EN"
 "http://www.w3.org/TR/2001/REC-SVG-20010904/DTD/svg10.dtd">
<svg version="1.0" xmlns="http://www.w3.org/2000/svg"
 width="3364.000000pt" height="3108.000000pt" viewBox="0 0 3364.000000 3108.000000"
 preserveAspectRatio="xMidYMid meet">

<g transform="translate(0.000000,3108.000000) scale(0.100000,-0.100000)"
fill="#000000" stroke="none">
<path d="M15805 23639 c-208 -20 -414 -79 -620 -179 -227 -109 -431 -253 -591
-416 -227 -233 -356 -429 -461 -704 -108 -285 -148 -524 -140 -840 8 -317 61
-518 224 -844 199 -401 576 -771 995 -979 184 -91 445 -167 651 -188 132 -14
360 -7 506 16 302 47 594 164 859 344 405 275 721 712 861 1192 46 160 62 274
68 497 6 221 -2 309 -44 502 -43 196 -96 334 -204 531 -208 380 -569 718 -959
895 -196 88 -384 144 -577 169 -122 16 -426 18 -568 4z"/>
<path d="M14399 19020 c-504 -61 -975 -241 -1403 -536 -145 -100 -194 -141
-352 -293 -176 -169 -295 -306 -405 -466 -204 -296 -361 -626 -457 -960 -41
-140 -51 -183 -81 -330 -44 -217 -60 -351 -72 -610 -15 -326 -5 -590 37 -915
23 -185 93 -544 129 -670 14 -47 39 -134 56 -195 52 -186 61 -215 71 -215 5 0
6 -5 3 -10 -8 -14 53 -187 79 -222 25 -35 50 -36 152 -3 285 92 706 170 1128
210 184 17 640 20 763 5 45 -6 142 -17 215 -25 283 -30 466 -61 778 -132 391
-89 753 -189 915 -253 41 -16 139 -53 217 -81 124 -45 360 -145 683 -287 108
-48 297 -136 752 -350 528 -249 956 -426 1196 -496 45 -13 150 -44 232 -69
376 -115 763 -193 1160 -233 246 -25 787 -30 1000 -10 328 32 602 89 885 184
343 115 635 265 978 499 332 227 509 368 637 508 50 54 111 121 136 149 62 68
145 185 224 316 123 203 140 269 86 328 -52 56 -98 41 -256 -83 -121 -94 -417
-305 -429 -305 -2 0 -49 -25 -103 -56 -167 -95 -394 -211 -477 -243 -112 -43
-355 -116 -467 -141 -323 -70 -644 -65 -1014 16 -332 74 -512 147 -955 388
-250 137 -591 365 -996 668 -256 191 -543 445 -844 747 -349 350 -584 642
-810 1005 -83 134 -302 560 -362 706 -77 183 -146 356 -178 445 -62 172 -224
545 -276 637 -19 33 -34 62 -34 64 0 9 -117 209 -161 275 -47 71 -209 269
-303 369 -154 164 -394 341 -605 445 -193 95 -454 175 -709 216 -187 31 -552
35 -763 9z"/>
<path d="M14068 11683 c7 -3 16 -2 19 1 4 3 -2 6 -13 5 -11 0 -14 -3 -6 -6z"/>
<path d="M22250 11040 c-21 -7 -21 -8 -5 -9 11 0 27 4 35 9 18 11 5 11 -30 0z"/>
<path d="M13488 10553 c46 -2 118 -2 160 0 42 1 5 3 -83 3 -88 0 -123 -2 -77
-3z"/>
<path d="M13218 10543 c12 -2 30 -2 40 0 9 3 -1 5 -23 4 -22 0 -30 -2 -17 -4z"/>
<path d="M13803 10543 c15 -2 37 -2 50 0 12 2 0 4 -28 4 -27 0 -38 -2 -22 -4z"/>
<path d="M13918 10533 c12 -2 30 -2 40 0 9 3 -1 5 -23 4 -22 0 -30 -2 -17 -4z"/>
</g>
</svg>
